<svg xmlns="http://www.w3.org/2000/svg" viewBox="0 0 70 14"><defs><style>.cls-1{fill:#fff;}</style></defs><title>vertical-ja</title><path class="cls-1" d="M6.94 7.34a2.27 2.27 0 0 0-1.59-.72 2.61 2.61 0 0 0 1.36-.72 1.92 1.92 0 0 0 .41-1.3 2.32 2.32 0 0 0-.32-1.15 2.06 2.06 0 0 0-.8-.78 3.44 3.44 0 0 0-1.11-.35 16.68 16.68 0 0 0-2.26-.11h-2.63v9.58h2.71a17.57 17.57 0 0 0 2.35-.11 3.83 3.83 0 0 0 1.21-.37 2.21 2.21 0 0 0 1-.9 2.74 2.74 0 0 0 .33-1.35 2.46 2.46 0 0 0-.66-1.72zm-4.51-3h.57a2.65 2.65 0 0 1 1.31.22.84.84 0 0 1 .34.76.79.79 0 0 1-.38.68 2.87 2.87 0 0 1-1.27.25h-.58zm2.22 5.53a2.67 2.67 0 0 1-1.31.23h-1v-2.1h1a2.5 2.5 0 0 1 1.3.24 1 1 0 0 1 .36.76.83.83 0 0 1-.35.87z"/><circle class="cls-1" cx="10.28" cy="10.57" r="1.22"/><path class="cls-1" d="M9.23 2.21h2.11v6.39h-2.11zM22.55 4.44a1.57 1.57 0 0 0-.07.22s0 .13-.07.27a9.64 9.64 0 0 1-6 6.86 5.62 5.62 0 0 0-1.31-1.79 7.28 7.28 0 0 0 5.25-5.15h-4.48a10 10 0 0 0-1.59.15v-1.91a9.2 9.2 0 0 0 1.62.08h4.49a6.94 6.94 0 0 0 .8 0v-.07a4.32 4.32 0 0 0-.43-.69l1-.28a6.28 6.28 0 0 1 .89 1.67l-.44.15zm.53-2.66a4.63 4.63 0 0 1 .81 1.58l-.87.3a6.29 6.29 0 0 0-.81-1.61zM25.44 4.68a13.1 13.1 0 0 1 1 2.64l-1.63.49a13.31 13.31 0 0 0-.93-2.7zm6.08.18a4.08 4.08 0 0 0-.16.64 9.4 9.4 0 0 1-1.31 3.4 7.58 7.58 0 0 1-2.18 2.1 14.32 14.32 0 0 1-1.26.7 5.34 5.34 0 0 0-1.15-1.47 5.91 5.91 0 0 0 3.88-3.59 7.33 7.33 0 0 0 .46-2.2zm-3.78-.62a10.69 10.69 0 0 1 1 2.55l-1.6.49a12.32 12.32 0 0 0-.94-2.62zM37.78 2.47a1.43 1.43 0 0 0-.12.26s0 .09-.07.16l-.09.22-.21.45h2.62a1.75 1.75 0 0 0 .77-.12l.87.86a2.58 2.58 0 0 0-.3.74 11 11 0 0 1-2.16 4.14 10.79 10.79 0 0 1-3.84 2.69 4.83 4.83 0 0 0-1.25-1.62 9.16 9.16 0 0 0 3.49-2.13 7.33 7.33 0 0 0 1.74-3h-2.78a9.77 9.77 0 0 1-2.39 2.68 5.21 5.21 0 0 0-1.48-1.25 8.22 8.22 0 0 0 2.78-3.18 4 4 0 0 0 .45-1.25zM44.56 4.83c-.87 0-1.23 0-1.69.05v-1.88a13 13 0 0 0 1.72.08h5.72a2 2 0 0 0 .69-.08l1 1.13a2.39 2.39 0 0 0-.48.67 14 14 0 0 1-3.31 4c.45.53.74.91 1.24 1.59l-1.57 1.22a17.62 17.62 0 0 0-2-2.73 15.56 15.56 0 0 0-2.1-2.08l1.43-1a16.13 16.13 0 0 1 1.79 1.67 11.54 11.54 0 0 0 1.63-1.65 7.18 7.18 0 0 0 .67-1zM52.47 6a10 10 0 0 0 1.76.09h4.1a11.56 11.56 0 0 0 1.76-.09v2a13.7 13.7 0 0 0-1.77-.06h-4.08a15 15 0 0 0-1.77.06zM66.24 2.47a1.5 1.5 0 0 0-.13.26s0 .09-.07.16l-.09.22-.21.45h2.62a1.75 1.75 0 0 0 .77-.12l.87.86a2.57 2.57 0 0 0-.3.74 11 11 0 0 1-2.16 4.14 10.79 10.79 0 0 1-3.84 2.69 4.85 4.85 0 0 0-1.25-1.59 9.14 9.14 0 0 0 3.49-2.13 7.34 7.34 0 0 0 1.74-3h-2.78a9.75 9.75 0 0 1-2.38 2.65 5.2 5.2 0 0 0-1.52-1.25 8.22 8.22 0 0 0 2.78-3.18 4 4 0 0 0 .45-1.25z"/></svg>